<?xml version="1.0" ?><svg height="64" viewBox="0 0 64 64" width="64" xmlns="http://www.w3.org/2000/svg"><defs><style>
      .a {
        fill: none;
        stroke: #231f20;
        stroke-linecap: round;
        stroke-linejoin: round;
        stroke-width: 4px;
      }
    </style></defs><title/><g><rect class="a" height="22" width="16" x="24" y="22"/><path class="a" d="M36,54H27.9995A2,2,0,0,1,26,52V50H22a4.00018,4.00018,0,0,1-4-4V17.9995A2,2,0,0,1,20,16H44a2.00009,2.00009,0,0,1,2,2V46a4.00028,4.00028,0,0,1-4.0005,4H38v2A2.00009,2.00009,0,0,1,36,54Z"/><path class="a" d="M30,10h4a2.00009,2.00009,0,0,1,2,2v4H28V12A2.00009,2.00009,0,0,1,30,10Z"/></g></svg>