<?xml version="1.0" ?><svg height="64" viewBox="0 0 64 64" width="64" xmlns="http://www.w3.org/2000/svg"><defs><style>
      .a {
        fill: none;
        stroke: #000;
        stroke-linecap: round;
        stroke-linejoin: round;
        stroke-width: 4px;
      }
    </style></defs><title/><g><rect class="a" height="8" width="44" x="10" y="22"/><polyline class="a" points="44 22 44 16 20 16 20 22"/><polyline class="a" points="14 22 14 10 50 10 50 22"/><line class="a" x1="14" x2="14" y1="30" y2="54"/><line class="a" x1="50" x2="50" y1="30" y2="54"/><line class="a" x1="20" x2="20" y1="46" y2="54"/><line class="a" x1="14" x2="50" y1="46" y2="46"/><line class="a" x1="26" x2="26" y1="46" y2="54"/><line class="a" x1="32" x2="32" y1="46" y2="54"/><line class="a" x1="38" x2="38" y1="46" y2="54"/><line class="a" x1="44" x2="44" y1="46" y2="54"/><line class="a" x1="14" x2="36" y1="38" y2="38"/><line class="a" x1="50" x2="42" y1="38" y2="38"/><line class="a" x1="26" x2="26" y1="10" y2="16"/><line class="a" x1="38" x2="38" y1="10" y2="16"/></g></svg>