<?xml version="1.0" ?><svg height="64" viewBox="0 0 64 64" width="64" xmlns="http://www.w3.org/2000/svg"><defs><style>
      .a {
        fill: none;
        stroke: #000;
        stroke-linecap: round;
        stroke-linejoin: round;
        stroke-width: 4px;
      }
    </style></defs><title/><g><polygon class="a" points="46 50 46 54 54 54 54 34 46 34 46 38 18 38 18 34 10 34 10 54 18 54 18 50 46 50"/><polyline class="a" points="28 38 28 10 36 10 36 38"/><circle class="a" cx="14" cy="18" r="4"/><circle class="a" cx="50" cy="18" r="4"/><line class="a" x1="18" x2="28" y1="18" y2="18"/><line class="a" x1="46" x2="36" y1="18" y2="18"/><line class="a" x1="50" x2="36" y1="22" y2="30"/><line class="a" x1="14" x2="28" y1="22" y2="30"/><line class="a" x1="18" x2="18" y1="38" y2="50"/><line class="a" x1="46" x2="46" y1="38" y2="50"/></g></svg>