<?xml version="1.0" ?><svg height="64" viewBox="0 0 64 64" width="64" xmlns="http://www.w3.org/2000/svg"><defs><style>
      .a {
        fill: none;
        stroke: #000;
        stroke-linecap: round;
        stroke-linejoin: round;
        stroke-width: 4px;
      }
    </style></defs><title/><g><path class="a" d="M46,40a14,14,0,0,1-28,0V24a14,14,0,0,1,28,0Z"/><path class="a" d="M18,38H16a6,6,0,0,1,0-12H48a6,6,0,0,1,0,12H46"/><path class="a" d="M46,28a6.00027,6.00027,0,0,1-6,6H24a6.00027,6.00027,0,0,1-6-6"/><path class="a" d="M26,26V24a6,6,0,0,1,12,0v2"/><path class="a" d="M38,40a6,6,0,0,1-12,0"/><line class="a" x1="32" x2="32" y1="34" y2="38"/><path class="a" d="M50,54a4.00018,4.00018,0,0,1-4-4V42a4,4,0,0,1,8,0V54Z"/><path class="a" d="M14,54a4.00018,4.00018,0,0,0,4-4V42a4,4,0,0,0-8,0V54Z"/></g></svg>