<?xml version="1.0" ?><svg height="64" viewBox="0 0 64 64" width="64" xmlns="http://www.w3.org/2000/svg"><defs><style>
      .a {
        fill: none;
        stroke: #000;
        stroke-linecap: round;
        stroke-linejoin: round;
        stroke-width: 4px;
      }
    </style></defs><title/><g><line class="a" x1="22" x2="42" y1="10" y2="10"/><polygon class="a" points="22 18 32 26 42 18 42 10 32 18 22 10 22 18"/><line class="a" x1="32" x2="32" y1="54" y2="18"/><polyline class="a" points="18 54 10 54 10 22 18 14 22 14"/><polyline class="a" points="46 54 54 54 54 22 46 14 42 14"/><polyline class="a" points="18 30 18 54 46 54 46 30"/><line class="a" x1="10" x2="18" y1="46" y2="46"/><line class="a" x1="46" x2="54" y1="46" y2="46"/><line class="a" x1="32" x2="38" y1="34" y2="34"/><line class="a" x1="32" x2="38" y1="40" y2="40"/><line class="a" x1="32" x2="38" y1="46" y2="46"/></g></svg>