<?xml version="1.0" ?><svg height="64" viewBox="0 0 64 64" width="64" xmlns="http://www.w3.org/2000/svg"><defs><style>
      .a {
        fill: none;
        stroke: #000;
        stroke-linecap: round;
        stroke-linejoin: round;
        stroke-width: 4px;
      }
    </style></defs><title/><g><path class="a" d="M48,38V10H16V49.999A4.00018,4.00018,0,0,0,19.999,54H34"/><path class="a" d="M33.999,46h16a4,4,0,1,0,0-8H34a4,4,0,0,0-.001,8Z"/><path class="a" d="M54,42v8a4.00039,4.00039,0,0,1-4.001,4H34a4.00018,4.00018,0,0,1-4-4V42"/><path class="a" d="M48,14h6V24a6.00027,6.00027,0,0,1-6,6H16a6.00026,6.00026,0,0,1-6-6V14h6"/><line class="a" x1="16" x2="48" y1="18" y2="18"/></g></svg>