<?xml version="1.0" ?><svg height="64" viewBox="0 0 64 64" width="64" xmlns="http://www.w3.org/2000/svg"><defs><style>
      .a {
        fill: none;
        stroke: #000;
        stroke-linecap: round;
        stroke-linejoin: round;
        stroke-width: 4px;
      }
    </style></defs><title/><g><path class="a" d="M50,30a4,4,0,0,1,0,8H22a4,4,0,0,1,0-8Z"/><path class="a" d="M28,46a6.00027,6.00027,0,0,0-6,6v2H50V52a6.00027,6.00027,0,0,0-6-6,6.00027,6.00027,0,0,0,6-6V38H22v2A6.00027,6.00027,0,0,0,28,46Z"/><line class="a" x1="10" x2="54" y1="54" y2="54"/><path class="a" d="M22,38H14a4.00018,4.00018,0,0,1-4-4V10H26V30"/><line class="a" x1="10" x2="26" y1="18" y2="18"/><path class="a" d="M10,54V50a4.00018,4.00018,0,0,1,4-4H28"/></g></svg>