<?xml version="1.0" ?><svg height="64" viewBox="0 0 64 64" width="64" xmlns="http://www.w3.org/2000/svg"><defs><style>
      .a {
        fill: none;
        stroke: #000;
        stroke-linecap: round;
        stroke-linejoin: round;
        stroke-width: 4px;
      }
    </style></defs><title/><g><path class="a" d="M36,18a6.00027,6.00027,0,0,0,6-6V10H22v2a6.00026,6.00026,0,0,0,6,6Z"/><polyline class="a" points="22 10 18 10 10 18 10 54 18 54"/><polyline class="a" points="42 10 46 10 54 18 54 54 46 54"/><polyline class="a" points="18 10 18 54 46 54 46 10"/><line class="a" x1="38" x2="38" y1="34" y2="17.6567"/><line class="a" x1="26" x2="26" y1="17.6558" y2="34"/><polyline class="a" points="26 54 26 42 38 42 38 54"/><line class="a" x1="18" x2="46" y1="34" y2="34"/><line class="a" x1="10" x2="18" y1="46" y2="46"/><line class="a" x1="46" x2="54" y1="46" y2="46"/><line class="a" x1="18" x2="26" y1="26" y2="26"/><line class="a" x1="38" x2="46" y1="26" y2="26"/></g></svg>