<?xml version="1.0" ?><svg height="64" viewBox="0 0 64 64" width="64" xmlns="http://www.w3.org/2000/svg"><defs><style>
      .a {
        fill: none;
        stroke: #231f20;
        stroke-linecap: round;
        stroke-linejoin: round;
        stroke-width: 4px;
      }
    </style></defs><title/><g><path class="a" d="M10,18c3.66409,0,3.66409,2,7.32909,2,3.666,0,3.666-2,7.332-2,3.667,0,3.667,2,7.334,2,3.6651,0,3.6651-2,7.3311-2,3.6679,0,3.6679,2,7.3369,2S50.332,18,54,18V40H10Z"/><circle class="a" cx="20" cy="30" r="4"/><circle class="a" cx="31" cy="27" r="1"/><circle class="a" cx="47" cy="27" r="1"/><circle class="a" cx="39" cy="32" r="2"/><path class="a" d="M52,46H11.999A1.99987,1.99987,0,0,1,10,44V40H54v4A2.0001,2.0001,0,0,1,52,46Z"/></g></svg>