<?xml version="1.0" ?><svg height="64" viewBox="0 0 64 64" width="64" xmlns="http://www.w3.org/2000/svg"><defs><style>
      .a {
        fill: none;
        stroke: #0075f2;
        stroke-linecap: round;
        stroke-linejoin: round;
        stroke-width: 4px;
      }
    </style></defs><title/><g><path class="a" d="M14,38V48a6.00026,6.00026,0,0,0,6,6H44a6.00027,6.00027,0,0,0,6-6V38a4.00018,4.00018,0,0,1,4-4H10A4.00018,4.00018,0,0,1,14,38Z"/><path class="a" d="M14,34V14a4,4,0,0,1,8,0v4"/><line class="a" x1="10" x2="54" y1="54" y2="54"/><line class="a" x1="10" x2="18" y1="26" y2="26"/><line class="a" x1="14" x2="36" y1="42" y2="42"/><line class="a" x1="50" x2="42" y1="42" y2="42"/></g></svg>