<?xml version="1.0" ?><svg height="64" viewBox="0 0 64 64" width="64" xmlns="http://www.w3.org/2000/svg"><defs><style>
      .a {
        fill: none;
        stroke: #0075f2;
        stroke-linecap: round;
        stroke-linejoin: round;
        stroke-width: 4px;
      }
    </style></defs><title/><g><path class="a" d="M50,34a4.00018,4.00018,0,0,1-4,4H18a4.00018,4.00018,0,0,1-4-4V32H50Z"/><path class="a" d="M18,38a8,8,0,0,0,8,8,8,8,0,0,0-8,8H46a8,8,0,0,0-8-8,8,8,0,0,0,8-8"/><line class="a" x1="10" x2="54" y1="54" y2="54"/><path class="a" d="M42,32h4a4.00018,4.00018,0,0,0,4-4V20a4.00018,4.00018,0,0,0-4-4H41.7402"/><path class="a" d="M22,32V18a8,8,0,0,1,8-8h4a8,8,0,0,1,8,8V32"/><path class="a" d="M22.2588,16H18a4.00018,4.00018,0,0,0-4,4v8a4.00018,4.00018,0,0,0,4,4h4"/><path class="a" d="M28,32V20a4,4,0,0,1,8,0V32"/></g></svg>