<svg xmlns="http://www.w3.org/2000/svg" version="1.1" xmlns:xlink="http://www.w3.org/1999/xlink" xmlns:svgjs="http://svgjs.dev/svgjs" width="1000" height="1000" viewBox="0 0 1000 1000"><rect width="1000" height="1000" fill="#000000"></rect><g transform="matrix(0.7,0,0,0.7,149.5758119732917,421.3701926530679)"><svg viewBox="0 0 396 89" data-background-color="#ffffff" preserveAspectRatio="xMidYMid meet" height="224" width="1000" xmlns="http://www.w3.org/2000/svg" xmlns:xlink="http://www.w3.org/1999/xlink"><defs></defs><g id="tight-bounds" transform="matrix(1,0,0,1,0.2399695318601971,0.13043911911330497)"><svg viewBox="0 0 395.52 88.73912176177339" height="88.73912176177339" width="395.52"><g><svg viewBox="0 0 535.3090328482481 120.10227914163087" height="88.73912176177339" width="395.52"><g><rect width="5.021131237226575" height="120.10227914163087" x="121.62357900048067" y="0" fill="#ffffff" opacity="1" stroke-width="0" stroke="transparent" fill-opacity="1" class="rect-o-0" data-fill-palette-color="primary" rx="1%" id="o-0" data-palette-color="#0075f2"></rect></g><g transform="matrix(1,0,0,1,139.789032848248,0.29876188841200957)"><svg viewBox="0 0 395.52 119.50475536480685" height="119.50475536480685" width="395.52"><g><svg viewBox="0 0 395.52 119.50475536480685" height="119.50475536480685" width="395.52"><g><svg viewBox="0 0 395.52 119.50475536480685" height="119.50475536480685" width="395.52"><g transform="matrix(1,0,0,1,0,0)"><svg width="395.52" viewBox="3 -40.5 291.24993896484375 85" height="119.50475536480685" data-palette-color="#0075f2"><svg></svg><svg></svg><g class="undefined-text-0" data-fill-palette-color="primary" id="text-0"><path d="M15 0h-11v-27.35l-1-5.05 1-3h18c2.7 0 5.017 0.433 6.95 1.3 1.933 0.867 3.417 2.257 4.45 4.17 1.033 1.92 1.55 4.447 1.55 7.58v0c0 2.9-0.483 5.283-1.45 7.15-0.967 1.867-2.383 3.283-4.25 4.25v0l0.85 0.7 3.45 4.7 2.85 2.55v3h-13.25l-5.5-9.15h-2.65v1.1l0.5 5zM14.5-25.9l0.5 7.4h2.9c1.167 0 2.177-0.05 3.03-0.15 0.847-0.1 1.503-0.41 1.97-0.93 0.467-0.513 0.7-1.353 0.7-2.52v0c0-1.233-0.25-2.117-0.75-2.65-0.5-0.533-1.19-0.86-2.07-0.98-0.887-0.113-1.913-0.17-3.08-0.17v0zM51.45 0h-11.05v-27.4l-0.5-5 0.5-3h11.05zM74.15 0.5v0c-2.3 0-4.523-0.267-6.67-0.8-2.153-0.533-4.08-1.467-5.78-2.8-1.7-1.333-3.05-3.183-4.05-5.55-1-2.367-1.5-5.383-1.5-9.05v0c0-3.3 0.483-6.11 1.45-8.43 0.967-2.313 2.283-4.187 3.95-5.62 1.667-1.433 3.583-2.483 5.75-3.15 2.167-0.667 4.45-1 6.85-1v0c1.7 0 3.36 0.133 4.98 0.4 1.613 0.267 2.787 0.567 3.52 0.9v0l6.05 5.05-5 8.25-9.55-4.4c-1.133 0-2.19 0.307-3.17 0.92-0.987 0.62-1.787 1.52-2.4 2.7-0.62 1.187-0.93 2.647-0.93 4.38v0c0 2.2 0.343 3.89 1.03 5.07 0.68 1.187 1.663 1.997 2.95 2.43 1.28 0.433 2.803 0.65 4.57 0.65v0c1.7 0 3.31-0.177 4.83-0.53 1.513-0.347 2.853-0.753 4.02-1.22 1.167-0.467 2.05-0.867 2.65-1.2v0 10c-0.667 0.333-1.607 0.74-2.82 1.22-1.22 0.487-2.72 0.903-4.5 1.25-1.787 0.353-3.863 0.53-6.23 0.53zM105.2 0h-11.5v-27.35l-0.5-5 0.5-3.05h11v13.55h10.45v-13.55h11v18.8l0.5 3.45v13.15h-11.5v-12.7h-10.45v3.5zM141.65 0h-11.5l2.4-8.45v-6.35l3.7-1.5 7-19.05h15.05l8.55 22.4 3.85 7.1v5.85h-10.85l-2.5-7.45h-13.55zM150.25-26.15l-3.15 9.95h7.5l-3.3-9.95zM186.2 0h-11v-27.35l-1-5.05 1-3h18c2.7 0 5.017 0.433 6.95 1.3 1.933 0.867 3.417 2.257 4.45 4.17 1.033 1.92 1.55 4.447 1.55 7.58v0c0 2.9-0.483 5.283-1.45 7.15-0.967 1.867-2.383 3.283-4.25 4.25v0l0.85 0.7 3.45 4.7 2.85 2.55v3h-13.25l-5.5-9.15h-2.65v1.1l0.5 5zM185.7-25.9l0.5 7.4h2.9c1.167 0 2.177-0.05 3.03-0.15 0.847-0.1 1.503-0.41 1.97-0.93 0.467-0.513 0.7-1.353 0.7-2.52v0c0-1.233-0.25-2.117-0.75-2.65-0.5-0.533-1.19-0.86-2.07-0.98-0.887-0.113-1.913-0.17-3.08-0.17v0zM229.05 0h-16.95v-27.35l-1-5 1-3.05h16.95c2.367 0 4.66 0.223 6.88 0.67 2.213 0.453 4.197 1.297 5.95 2.53 1.747 1.233 3.137 3 4.17 5.3 1.033 2.3 1.55 5.283 1.55 8.95v0c0 3.667-0.523 6.673-1.57 9.02-1.053 2.353-2.463 4.18-4.23 5.48-1.767 1.3-3.75 2.2-5.95 2.7-2.2 0.5-4.467 0.75-6.8 0.75zM223.2-25.9v16.4h3.8c1.967 0 3.627-0.217 4.98-0.65 1.347-0.433 2.37-1.26 3.07-2.48 0.7-1.213 1.05-2.987 1.05-5.32v0c0-2.367-0.357-4.11-1.07-5.23-0.72-1.113-1.753-1.847-3.1-2.2-1.353-0.347-2.997-0.52-4.93-0.52v0zM256.6-24h-1l-4.5-11.5 5-5 5 5zM278.85 0.5v0c-1.833 0-3.64-0.157-5.42-0.47-1.787-0.32-3.363-0.73-4.73-1.23-1.367-0.5-2.35-1-2.95-1.5v0-10.45c1.267 0.7 2.683 1.333 4.25 1.9 1.567 0.567 3.16 1.007 4.78 1.32 1.613 0.32 3.153 0.48 4.62 0.48v0c2.033 0 3.05-0.467 3.05-1.4v0c0-0.467-0.207-0.86-0.62-1.18-0.42-0.313-1.147-0.653-2.18-1.02-1.033-0.367-2.5-0.833-4.4-1.4v0c-2.2-0.7-4.073-1.433-5.62-2.2-1.553-0.767-2.737-1.75-3.55-2.95-0.82-1.2-1.23-2.8-1.23-4.8v0c0-3.467 1.383-6.25 4.15-8.35 2.767-2.1 6.817-3.15 12.15-3.15v0c1.067 0 2.21 0.043 3.43 0.13 1.213 0.08 2.187 0.187 2.92 0.32v0l6.15 4.15-2.5 7.6-12.8-3.25c-1.333 0-2 0.45-2 1.35v0c0 0.7 0.427 1.273 1.28 1.72 0.847 0.453 2.387 1.063 4.62 1.83v0c2.967 1 5.327 2.023 7.08 3.07 1.747 1.053 3.003 2.247 3.77 3.58 0.767 1.333 1.15 2.917 1.15 4.75v0c0 3.333-1.283 6.023-3.85 8.07-2.567 2.053-6.417 3.08-11.55 3.08z" data-fill-palette-color="primary" fill="#ffffff" opacity="1"></path><path d="M15 44h-11v-27.35l-1-5.05 1-3h18c2.7 0 5.017 0.433 6.95 1.3 1.933 0.867 3.417 2.257 4.45 4.17 1.033 1.92 1.55 4.447 1.55 7.58v0c0 4.7-1.257 8.073-3.77 10.12-2.52 2.053-6.08 3.08-10.68 3.08v0h-5.5v1.1l0.5 5zM14.5 18.1l0.5 7.4h2.9c1.167 0 2.177-0.05 3.03-0.15 0.847-0.1 1.503-0.41 1.97-0.93 0.467-0.513 0.7-1.353 0.7-2.52v0c0-1.233-0.25-2.117-0.75-2.65-0.5-0.533-1.19-0.86-2.07-0.98-0.887-0.113-1.913-0.17-3.08-0.17v0zM65.4 44h-25.95l-1-3 1-5v-27.4h11v19.05l-0.5 6.85h1l8.95-0.5 3.55-0.5 4.4 7.3zM85.8 44.5v0c-5.833 0-10.033-1.177-12.6-3.53-2.567-2.347-3.85-6.12-3.85-11.32v0-13l0.05-5.05-0.05-3h11.2v18.55c0 1.533 0.117 2.89 0.35 4.07 0.233 1.187 0.733 2.113 1.5 2.78 0.767 0.667 1.933 1 3.5 1v0c1.6 0 2.783-0.3 3.55-0.9 0.767-0.6 1.267-1.483 1.5-2.65 0.233-1.167 0.35-2.6 0.35-4.3v0-18.55h10.95v21.05c0 3.4-0.55 6.19-1.65 8.37-1.1 2.187-2.85 3.813-5.25 4.88-2.4 1.067-5.583 1.6-9.55 1.6zM120.45 44h-11.7v-27.35l-1-5 1.05-3h11.65l9.8 17.5h1l8.1-17.5h11.95l0.5 3-0.5 4.8v27.55h-11.05l0.15-4.25v-13.95h-0.55l-1.9 5.25-3.6 7.95h-8l-5.9-13.2h-0.5v4.05zM180.8 44h-22v-27.4l-1-5 1-3h19c3.767 0 6.783 0.733 9.05 2.2 2.267 1.467 3.4 3.7 3.4 6.7v0c0 1.633-0.29 2.973-0.87 4.02-0.587 1.053-1.33 1.947-2.23 2.68v0c1.133 0.267 2.2 0.76 3.2 1.48 1 0.713 1.817 1.66 2.45 2.84 0.633 1.187 0.95 2.647 0.95 4.38v0c0 3.5-1.023 6.223-3.07 8.17-2.053 1.953-5.347 2.93-9.88 2.93zM169.8 18.1v4.25h5.9c1.133 0 1.95-0.177 2.45-0.53 0.5-0.347 0.75-0.887 0.75-1.62v0c0-0.767-0.367-1.31-1.1-1.63-0.733-0.313-1.6-0.47-2.6-0.47v0zM169.8 29.8v4.7h8.5c1.333 0 2.267-0.21 2.8-0.63 0.533-0.413 0.8-0.97 0.8-1.67v0c0-1.6-1.033-2.4-3.1-2.4v0zM210.3 44h-11.05v-27.4l-0.5-5 0.5-3h11.05zM228.9 44h-11.6v-27.35l-1-5 1-3h10.05l10.1 12.6 2.4 4.15h0.5v-16.75h11.55v3l-0.5 5v27.35h-9.95l-12.55-17.1h-0.5v3zM276.6 44.5v0c-2.9 0-5.567-0.26-8-0.78-2.433-0.513-4.55-1.437-6.35-2.77-1.8-1.333-3.193-3.183-4.18-5.55-0.98-2.367-1.47-5.4-1.47-9.1v0c0-3.667 0.517-6.683 1.55-9.05 1.033-2.367 2.443-4.217 4.23-5.55 1.78-1.333 3.803-2.267 6.07-2.8 2.267-0.533 4.633-0.8 7.1-0.8v0c1.633 0 3.133 0.083 4.5 0.25 1.367 0.167 2.6 0.383 3.7 0.65v0l6.8 3.95-3.5 8.8-11.05-3.35c-1.433 0-2.75 0.223-3.95 0.67-1.2 0.453-2.157 1.253-2.87 2.4-0.72 1.153-1.08 2.78-1.08 4.88v0c0 3.2 0.693 5.44 2.08 6.72 1.38 1.287 3.337 1.93 5.87 1.93v0c0.967 0 1.767-0.06 2.4-0.18 0.633-0.113 1.167-0.253 1.6-0.42v0-2.75h-4.35v-7.9h15.9l0.55 3-1.1 5.15v10.5c-0.367 0.133-1.193 0.367-2.48 0.7-1.28 0.333-2.937 0.65-4.97 0.95-2.033 0.3-4.367 0.45-7 0.45z" data-fill-palette-color="primary" fill="#ffffff" opacity="1"></path></g></svg></g></svg></g></svg></g></svg></g><g transform="matrix(1,0,0,1,0,0.29876188841200246)"><svg viewBox="0 0 108.4792563899399 119.50475536480687" height="119.50475536480687" width="108.4792563899399"><g><svg xmlns="http://www.w3.org/2000/svg" xmlns:xlink="http://www.w3.org/1999/xlink" version="1.1" x="0" y="0" viewBox="10.14941692352295 6.098860740661621 79.70127868652344 87.80187225341797" enable-background="new 0 0 100 100" xml:space="preserve" height="119.50475536480687" width="108.4792563899399" class="icon-icon-0" data-fill-palette-color="accent" id="icon-0"><g fill="#0075f2" data-fill-palette-color="accent"><path d="M57.803 35.792c0.877 0.88 2.248 0.941 3.053 0.135l1.844-1.844c0.808-0.807 0.746-2.175-0.135-3.055l-6.093-6.096c-0.883-0.879-2.251-0.94-3.057-0.135l-1.845 1.845c-0.807 0.806-0.746 2.174 0.136 3.055L57.803 35.792z" fill="#ffffff" data-fill-palette-color="accent"></path><path d="M75.286 18.848l-1.912 1.912c0 0-5.684-5.683-6.306-6.306-0.623-0.623-6.333-0.208-8.408 1.868-1.705 1.705-2.148 5.991-2.254 7.473 0.078 0.062 0.158 0.116 0.229 0.187l6.878 6.882c0.995 0.994 0.996 2.607 0 3.603l-2.273 2.275c-0.992 0.994-2.61 0.994-3.602 0l-2.776-2.776c-0.338-0.116-0.604-0.042-0.718 0.368-0.364 1.296-0.091 6.365-1.161 8.54-0.926 2.548-5.513 8.989-17.791 21.034S17.654 80.056 11.516 86.194c-4.207 4.207 2.267 10.473 6.37 6.37 2.202-2.202 65.558-65.559 65.558-65.559L75.286 18.848zM19.129 86.839l-3.477 3.478c-0.473 0.472-1.24 0.472-1.713 0-0.473-0.474-0.473-1.238 0-1.712l3.478-3.478c0.473-0.475 1.24-0.475 1.712 0C19.603 85.601 19.603 86.366 19.129 86.839z" fill="#ffffff" data-fill-palette-color="accent"></path><g fill="#0075f2" data-fill-palette-color="accent"><path d="M56.634 35.955c0.035-0.037 0.072-0.072 0.109-0.109l-0.368-0.368L56.634 35.955z" fill="#ffffff" data-fill-palette-color="accent"></path><path d="M53.204 36.791c-0.047-0.991 0.188-3.546 0.625-3.858l-2.309-2.309c-6.357 6.357-11.773 11.774-12.739 12.739-2.492 2.492 2.491 7.786 5.138 5.139 0.833-0.834 4.493-4.445 9.119-9.006C53.13 38.575 53.231 37.368 53.204 36.791z" fill="#ffffff" data-fill-palette-color="accent"></path></g><path d="M83.521 8.174c-2.804-2.699-7.059-2.492-8.615-0.934-0.426 0.424-3.131 3.13-6.882 6.88l5.347 5.347c2.759-2.716 4.586-4.517 4.685-4.615 0.414-0.416 1.21-0.035 1.678 0.432 0.467 0.467 7.717 7.717 7.717 7.717s0.898-0.969 2.179-2.18C90.91 19.61 86.325 10.872 83.521 8.174z" fill="#ffffff" data-fill-palette-color="accent"></path></g></svg></g></svg></g></svg></g></svg><rect width="395.52" height="88.73912176177339" fill="none" stroke="none" visibility="hidden"></rect></g></svg></g></svg>